<?xml version="1.0" encoding="utf-8"?>
<!-- Generator: Adobe Illustrator 16.0.3, SVG Export Plug-In . SVG Version: 6.00 Build 0)  -->
<!DOCTYPE svg PUBLIC "-//W3C//DTD SVG 1.1 Tiny//EN" "http://www.w3.org/Graphics/SVG/1.1/DTD/svg11-tiny.dtd">
<svg version="1.1" baseProfile="tiny" id="Ebene_1" xmlns="http://www.w3.org/2000/svg" xmlns:xlink="http://www.w3.org/1999/xlink"
	 x="0px" y="0px" width="180px" height="83px" viewBox="0 0 180 83" xml:space="preserve">
<g>
	<path fill="#666666" d="M31.805,67.943h0.875v-4.374h4.399v-0.746h-4.399v-3.318h4.952v-0.746h-5.827V67.943z M39.007,60.057h0.811
		v-1.299h-0.811V60.057z M39.007,67.943h0.811v-6.638h-0.811V67.943z M44.575,61.063c-0.943,0-1.835,0.542-2.132,1.344h-0.026v-1.15
		h-0.814v6.667h0.814v-3.889c0.026-1.306,0.801-2.287,2.093-2.287c1.318,0,1.692,0.865,1.692,2.015v4.161h0.814v-4.29
		C47.017,62.044,46.448,61.063,44.575,61.063z M54.21,66.772v-3.524c0-1.775-1.273-2.135-2.444-2.135
		c-1.518,0-2.611,0.668-2.688,2.225h0.811c0.026-1.08,0.771-1.543,1.775-1.543c0.952,0,1.736,0.27,1.736,1.362
		c0,0.733-0.373,0.824-1.042,0.901c-1.749,0.205-3.563,0.271-3.563,2.135c0,1.338,1.003,1.942,2.225,1.942
		c1.273,0,1.852-0.489,2.418-1.351h0.026c0,0.694,0.129,1.158,0.952,1.158c0.219,0,0.347-0.014,0.527-0.052v-0.682
		c-0.064,0.025-0.167,0.051-0.257,0.051C54.365,67.26,54.21,67.081,54.21,66.772z M53.4,65.37c0.013,1.3-1.081,2.084-2.315,2.084
		c-0.759,0-1.479-0.502-1.479-1.313c0-1.299,1.711-1.286,3.087-1.53c0.219-0.038,0.579-0.103,0.682-0.296H53.4V65.37z
		 M59.214,61.113c-0.939,0-1.827,0.54-2.123,1.338h-0.025v-1.146h-0.811v6.638h0.811v-3.872c0.025-1.299,0.797-2.277,2.083-2.277
		c1.312,0,1.685,0.862,1.685,2.007v4.143h0.81v-4.271C61.645,62.09,61.079,61.113,59.214,61.113z M68.397,61.884v-0.579H63.33v0.682
		h4.039l-4.334,5.3v0.656h5.543V67.26h-4.566L68.397,61.884z M76.976,61.113c-0.875,0-1.71,0.424-2.109,1.299
		c-0.244-0.875-1.029-1.299-1.903-1.299c-1.055,0-1.75,0.515-2.174,1.312h-0.039v-1.119h-0.746v6.638h0.811v-3.705
		c0.013-1.389,0.579-2.444,1.98-2.444c1.029,0,1.402,0.747,1.389,1.647v4.502h0.811v-3.757c0-1.234,0.398-2.393,1.8-2.393
		c1.158,0,1.57,0.593,1.57,1.686v4.464h0.81v-4.502C79.176,61.872,78.43,61.113,76.976,61.113z M86.212,66.772v-3.524
		c0-1.775-1.274-2.135-2.444-2.135c-1.518,0-2.611,0.668-2.688,2.225h0.811c0.025-1.08,0.772-1.543,1.775-1.543
		c0.951,0,1.736,0.27,1.736,1.362c0,0.733-0.373,0.824-1.042,0.901c-1.75,0.205-3.563,0.271-3.563,2.135
		c0,1.338,1.003,1.942,2.225,1.942c1.273,0,1.852-0.489,2.418-1.351h0.026c0,0.694,0.129,1.158,0.952,1.158
		c0.219,0,0.348-0.014,0.528-0.052v-0.682c-0.065,0.025-0.167,0.051-0.257,0.051C86.366,67.26,86.212,67.081,86.212,66.772z
		 M85.401,65.37c0.013,1.3-1.08,2.084-2.315,2.084c-0.759,0-1.479-0.502-1.479-1.313c0-1.299,1.71-1.286,3.086-1.53
		c0.219-0.038,0.579-0.103,0.682-0.296h0.025V65.37z M89.041,62.862h-0.025v-1.557H88.27v6.638h0.811v-3.538
		c0-1.376,1.003-2.456,2.47-2.379v-0.811C90.354,61.165,89.453,61.793,89.041,62.862z M98.327,61.305h-1.08l-3.679,3.216v-5.763
		h-0.811v9.185h0.811v-2.521l1.312-1.094l2.625,3.615h1.016l-3.022-4.181L98.327,61.305z M100.913,59.312h-0.811v1.993h-1.157v0.683
		h1.157v4.539c-0.013,1.132,0.36,1.492,1.44,1.492c0.244,0,0.477-0.025,0.721-0.025v-0.694c-0.231,0.025-0.463,0.038-0.694,0.038
		c-0.579-0.038-0.656-0.347-0.656-0.874v-4.476h1.351v-0.683h-1.351V59.312z M108.927,66.772v-3.524
		c0-1.775-1.273-2.135-2.444-2.135c-1.519,0-2.611,0.668-2.688,2.225h0.811c0.025-1.08,0.771-1.543,1.774-1.543
		c0.952,0,1.736,0.27,1.736,1.362c0,0.733-0.373,0.824-1.042,0.901c-1.748,0.205-3.563,0.271-3.563,2.135
		c0,1.338,1.004,1.942,2.226,1.942c1.273,0,1.852-0.489,2.418-1.351h0.025c0,0.694,0.129,1.158,0.952,1.158
		c0.219,0,0.348-0.014,0.527-0.052v-0.682c-0.064,0.025-0.167,0.051-0.258,0.051C109.08,67.26,108.927,67.081,108.927,66.772z
		 M108.115,65.37c0.014,1.3-1.08,2.084-2.314,2.084c-0.759,0-1.479-0.502-1.479-1.313c0-1.299,1.711-1.286,3.087-1.53
		c0.219-0.038,0.579-0.103,0.682-0.296h0.025V65.37z M115.55,64.792c0,1.35-0.604,2.662-1.994,2.662
		c-1.286,0-1.736-0.631-1.774-1.826v-4.322h-0.811v4.31c0,1.543,0.656,2.521,2.328,2.521c0.99,0,1.865-0.502,2.29-1.389h0.025v1.196
		h0.746v-6.638h-0.811V64.792z M118.766,60.701v0.604h-1.132v0.682h1.132v5.956h0.811v-5.956h1.312v-0.682h-1.312v-0.578
		c0.013-0.721-0.014-1.286,0.888-1.286c0.192,0,0.372,0.025,0.592,0.063V58.81c-0.258-0.039-0.451-0.052-0.683-0.052
		C119.074,58.758,118.753,59.556,118.766,60.701z M125.222,64.302l-1.08-0.244c-0.553-0.142-1.376-0.399-1.376-1.119
		c0-0.862,0.848-1.145,1.569-1.145c0.926,0,1.697,0.45,1.736,1.453h0.811c-0.052-1.44-1.106-2.135-2.432-2.135
		c-1.17,0-2.495,0.514-2.495,1.864c0,1.132,0.798,1.493,1.853,1.775l1.041,0.231c0.733,0.181,1.453,0.438,1.453,1.209
		c0,0.927-1.055,1.261-1.813,1.261c-1.081,0-1.892-0.566-1.955-1.659h-0.811c0.128,1.621,1.183,2.341,2.727,2.341
		c1.235,0,2.663-0.553,2.663-1.994C127.113,64.984,126.148,64.444,125.222,64.302z M128.733,67.943h0.811v-6.638h-0.811V67.943z
		 M128.733,60.057h0.811v-1.299h-0.811V60.057z M134.341,67.454c-1.556,0-2.327-1.415-2.327-2.83c0-1.414,0.771-2.83,2.327-2.83
		c1.056,0,1.66,0.605,1.878,1.596h0.811c-0.18-1.518-1.272-2.276-2.688-2.276c-2.031,0-3.138,1.607-3.138,3.511
		s1.106,3.512,3.138,3.512c1.48,0,2.521-0.978,2.74-2.573h-0.811C136.168,66.668,135.345,67.454,134.341,67.454z M141.596,61.113
		c-0.939,0-1.827,0.54-2.122,1.338h-0.026v-3.692h-0.811v9.185h0.811v-3.872c0.026-1.299,0.797-2.277,2.084-2.277
		c1.312,0,1.685,0.862,1.685,2.007v4.143h0.811v-4.271C144.026,62.089,143.461,61.113,141.596,61.113z M148.632,61.988v-0.683
		h-1.352v-1.993h-0.81v1.993h-1.158v0.683h1.158v4.539c-0.014,1.132,0.36,1.492,1.439,1.492c0.245,0,0.477-0.025,0.722-0.025v-0.694
		c-0.231,0.025-0.464,0.038-0.695,0.038c-0.579-0.038-0.656-0.347-0.656-0.874v-4.476H148.632z"/>
	<g>
		<polygon fill="#666666" points="52.259,73.708 53.133,73.708 53.133,82.147 58.279,82.147 58.279,82.893 52.259,82.893 		"/>
		<path fill="#666666" d="M59.462,73.708h0.811v1.3h-0.811V73.708z M59.462,76.256h0.811v6.637h-0.811V76.256z"/>
		<path fill="#666666" d="M62.742,79.793c0.013,1.183,0.63,2.61,2.187,2.61c1.184,0,1.827-0.694,2.084-1.697h0.81
			c-0.347,1.505-1.222,2.379-2.894,2.379c-2.109,0-2.997-1.62-2.997-3.511c0-1.75,0.888-3.512,2.997-3.512
			c2.135,0,2.984,1.864,2.92,3.73H62.742z M67.038,79.111c-0.038-1.222-0.797-2.366-2.109-2.366c-1.325,0-2.058,1.157-2.187,2.366
			H67.038z"/>
		<path fill="#666666" d="M74.061,78.339c-0.219-0.99-0.823-1.595-1.878-1.595c-1.556,0-2.328,1.415-2.328,2.83
			s0.772,2.829,2.328,2.829c1.003,0,1.826-0.784,1.929-1.891h0.811c-0.219,1.595-1.261,2.572-2.74,2.572
			c-2.032,0-3.138-1.607-3.138-3.511c0-1.904,1.106-3.512,3.138-3.512c1.415,0,2.508,0.759,2.688,2.276H74.061z"/>
		<path fill="#666666" d="M76.479,73.708h0.811v3.692h0.025c0.296-0.798,1.184-1.338,2.123-1.338c1.865,0,2.431,0.978,2.431,2.56
			v4.271h-0.81v-4.142c0-1.146-0.373-2.007-1.686-2.007c-1.286,0-2.058,0.978-2.083,2.277v3.871h-0.811V73.708z"/>
		<path fill="#666666" d="M85.122,76.256h1.35v0.682h-1.35v4.476c0,0.527,0.077,0.836,0.656,0.875c0.231,0,0.463-0.013,0.694-0.039
			v0.695c-0.244,0-0.476,0.025-0.72,0.025c-1.081,0-1.454-0.36-1.441-1.492v-4.54h-1.158v-0.682h1.158v-1.994h0.811V76.256z"/>
		<path fill="#666666" d="M88.556,79.793c0.013,1.183,0.63,2.61,2.187,2.61c1.184,0,1.827-0.694,2.084-1.697h0.811
			c-0.348,1.505-1.223,2.379-2.895,2.379c-2.109,0-2.997-1.62-2.997-3.511c0-1.75,0.887-3.512,2.997-3.512
			c2.136,0,2.984,1.864,2.92,3.73H88.556z M92.852,79.111c-0.038-1.222-0.797-2.366-2.109-2.366c-1.325,0-2.058,1.157-2.187,2.366
			H92.852z"/>
		<path fill="#666666" d="M95.18,76.256h0.811v1.145h0.025c0.297-0.798,1.184-1.338,2.122-1.338c1.866,0,2.432,0.978,2.432,2.56
			v4.271h-0.811v-4.142c0-1.146-0.373-2.007-1.686-2.007c-1.286,0-2.058,0.978-2.083,2.277v3.871H95.18V76.256z"/>
		<path fill="#666666" d="M106.512,78.198c-0.039-1.003-0.811-1.453-1.737-1.453c-0.72,0-1.567,0.283-1.567,1.145
			c0,0.721,0.822,0.978,1.375,1.119l1.081,0.244c0.926,0.142,1.891,0.683,1.891,1.84c0,1.44-1.428,1.993-2.663,1.993
			c-1.543,0-2.598-0.72-2.727-2.341h0.811c0.063,1.094,0.875,1.659,1.955,1.659c0.759,0,1.813-0.334,1.813-1.261
			c0-0.771-0.721-1.028-1.453-1.208l-1.043-0.231c-1.054-0.284-1.852-0.644-1.852-1.776c0-1.35,1.324-1.864,2.495-1.864
			c1.325,0,2.38,0.694,2.432,2.135H106.512z"/>
		<path fill="#666666" d="M110.447,76.256h1.351v0.682h-1.351v4.476c0,0.527,0.077,0.836,0.656,0.875
			c0.231,0,0.463-0.013,0.694-0.039v0.695c-0.244,0-0.476,0.025-0.72,0.025c-1.081,0-1.454-0.36-1.441-1.492v-4.54h-1.157v-0.682
			h1.157v-1.994h0.811V76.256z"/>
		<path fill="#666666" d="M113.882,79.793c0.012,1.183,0.63,2.61,2.187,2.61c1.183,0,1.826-0.694,2.083-1.697h0.811
			c-0.348,1.505-1.222,2.379-2.894,2.379c-2.109,0-2.998-1.62-2.998-3.511c0-1.75,0.889-3.512,2.998-3.512
			c2.135,0,2.984,1.864,2.919,3.73H113.882z M118.177,79.111c-0.038-1.222-0.797-2.366-2.108-2.366
			c-1.325,0-2.059,1.157-2.187,2.366H118.177z"/>
		<path fill="#666666" d="M120.531,73.708h0.811v1.3h-0.811V73.708z M120.531,76.256h0.811v6.637h-0.811V76.256z"/>
		<path fill="#666666" d="M123.322,76.256h0.81v1.145h0.026c0.296-0.798,1.183-1.338,2.122-1.338c1.865,0,2.431,0.978,2.431,2.56
			v4.271h-0.81v-4.142c0-1.146-0.373-2.007-1.686-2.007c-1.286,0-2.058,0.978-2.084,2.277v3.871h-0.81V76.256z"/>
	</g>
	<path fill="#666666" d="M54.612,21.041c-1.747,0-3.535-0.028-4.925-0.085c-0.317,0.114-0.357,0.625-0.08,0.825l0.517,0.057
		c1.867,0.2,2.52,0.285,2.52,3.301v10.578c0,3.011-0.652,3.096-2.52,3.267l-0.874,0.085c-0.278,0.202-0.238,0.722,0.08,0.837
		c1.828-0.059,3.615-0.083,5.362-0.083c1.748,0,3.536,0.024,6.078,0.083c0.318-0.115,0.357-0.635,0.079-0.837l-1.667-0.13
		c-1.867-0.114-2.225-0.199-2.225-3.215v-3.984c0-0.711,0.04-0.769,0.954-0.769h2.344c3.456,0,4.091,0.057,4.448,1.253l0.319,1.11
		c0.238,0.199,0.993,0.199,1.192-0.029c-0.041-0.882-0.12-1.907-0.12-2.958c0-1.058,0.079-2.125,0.12-2.875
		c-0.199-0.198-0.954-0.198-1.192,0l-0.319,0.968c-0.357,1.194-0.992,1.251-4.448,1.251h-2.344c-0.914,0-0.954-0.057-0.954-0.768
		V23.83c0-1.593,0-1.65,1.668-1.65h2.027c1.271,0,2.264,0.028,3.336,0.228c1.51,0.284,2.146,1.11,2.542,2.76
		c0.397,0.171,1.113,0.114,1.271-0.113c-0.08-1.338-0.08-3.472-0.08-4.098c-0.834,0.057-3.059,0.085-5.601,0.085H54.612
		L54.612,21.041z"/>
	<path fill="#666666" d="M102.432,38.926c-1.271-0.114-1.709-0.313-1.827-2.218c-0.278-4.208-0.356-8.416-0.356-12.625
		c0-1.507,0.397-1.989,2.144-2.16l1.312-0.143c0.396-0.171,0.318-0.711-0.118-0.825c-1.112,0.057-2.503,0.085-4.171,0.085
		c-0.875,0-2.184-0.028-3.259-0.085c-0.674,1.877-1.945,3.555-3.217,5.432l-3.733,5.459c-0.874,1.336-1.43,2.132-2.066,2.957
		c-0.516-0.654-1.549-2.076-1.867-2.559l-4.37-6.568c-0.993-1.535-2.026-3.013-2.185-4.72c-1.47,0.085-2.86,0.085-4.25,0.085
		c-1.47,0-2.543-0.028-3.735-0.085c-0.357,0.085-0.397,0.625-0.159,0.825l1.351,0.17c1.549,0.171,2.146,0.768,2.146,2.104
		c0,1.734-0.238,4.095-0.397,6.028c-0.199,2.958-0.279,4.805-0.596,6.596c-0.238,1.734-0.557,2.161-2.463,2.332l-0.676,0.057
		c-0.238,0.145-0.238,0.693,0.12,0.837c1.55-0.059,2.979-0.083,4.251-0.083c1.469,0,2.701,0.024,4.17,0.083
		c0.317-0.115,0.317-0.663,0.04-0.837l-1.312-0.171c-1.707-0.198-1.748-0.653-1.748-2.53c0-2.331,0.08-4.861,0.159-6.596
		c0.079-1.194,0.159-3.412,0.238-4.806h0.079c0.477,0.853,1.55,2.645,2.305,3.839l3.535,5.459c0.914,1.432,2.622,4.221,3.297,5.757
		c0.279,0.114,0.874,0.114,1.033,0c0.714-1.337,2.7-4.496,4.051-6.487l3.417-5.008c0.753-1.139,1.31-1.992,2.384-3.558h0.078v2.647
		v8.98c0,1.934-0.119,2.162-1.709,2.332l-1.071,0.143c-0.397,0.174-0.237,0.722,0.078,0.837c1.75-0.059,3.458-0.083,5.323-0.083
		c1.59,0,3.14,0.024,4.846,0.083c0.437-0.115,0.478-0.721,0.081-0.837L102.432,38.926L102.432,38.926z"/>
	<path fill-rule="evenodd" fill="#666666" d="M118.907,32.85c1.112,0,1.231,0,1.628,0.765l1.868,3.863
		c0.516,1.221,0.396,1.391-1.034,1.505l-0.871,0.085c-0.24,0.173-0.2,0.693,0.118,0.837c1.391-0.029,3.137-0.083,4.846-0.083
		c2.064,0,3.537,0.024,5.164,0.083c0.278-0.144,0.278-0.635-0.041-0.837l-0.594-0.085c-2.026-0.256-2.227-0.455-3.139-2.357
		l-5.721-11.915c-0.634-1.28-1.152-2.617-1.787-3.898c-0.159-0.143-0.359-0.228-0.675-0.228c-0.081,0-1.39,1.166-2.78,1.365
		c0.119,0.483-0.24,1.166-0.756,2.078l-5.441,10.127c-0.834,1.534-1.469,2.726-1.946,3.464c-0.597,0.938-1.034,1.192-2.185,1.306
		l-1.192,0.143c-0.278,0.26-0.237,0.693,0.04,0.837c1.391-0.059,2.621-0.083,3.934-0.083c1.628,0.028,2.939,0.024,4.211,0.083
		c0.315-0.115,0.355-0.635,0.078-0.837l-1.153-0.143c-1.468-0.142-1.627-0.227-0.833-1.902l1.627-3.408
		c0.359-0.765,0.319-0.765,1.353-0.765H118.907L118.907,32.85z M114.26,31.569c-0.953,0-1.072,0-0.635-0.825l1.669-3.329
		c0.715-1.337,1.03-2.048,1.189-2.248h0.081c0.197,0.2,0.438,0.74,1.112,2.248l1.668,3.415c0.318,0.683,0.16,0.739-0.952,0.739
		H114.26L114.26,31.569z"/>
</g>
<path fill="#B10030" d="M0,10.729C28.892,3.717,58.833,0,89.88,0c31.048,0,61.229,3.717,90.12,10.729l-0.516,2.12
	C150.76,5.877,120.751,2.181,89.88,2.181c-30.87,0-60.639,3.696-89.366,10.667L0,10.729L0,10.729z"/>
</svg>
